<?xml version="1.0" encoding="UTF-8" standalone="no"?>
<!-- Created with Inkscape (http://www.inkscape.org/) -->

<svg
   width="100"
   height="100"
   viewBox="0 0 26.458333 26.458333"
   version="1.1"
   id="svg41"
   inkscape:version="1.1.1 (1:1.1+202109281949+c3084ef5ed)"
   sodipodi:docname="q_logo.svg"
   xmlns:inkscape="http://www.inkscape.org/namespaces/inkscape"
   xmlns:sodipodi="http://sodipodi.sourceforge.net/DTD/sodipodi-0.dtd"
   xmlns="http://www.w3.org/2000/svg"
   xmlns:svg="http://www.w3.org/2000/svg">
  <sodipodi:namedview
     id="namedview43"
     pagecolor="#ffffff"
     bordercolor="#666666"
     borderopacity="1.0"
     inkscape:pageshadow="2"
     inkscape:pageopacity="0.0"
     inkscape:pagecheckerboard="0"
     inkscape:document-units="mm"
     showgrid="false"
     units="px"
     width="100px"
     inkscape:zoom="6.2217172"
     inkscape:cx="14.304733"
     inkscape:cy="66.942934"
     inkscape:window-width="3768"
     inkscape:window-height="2096"
     inkscape:window-x="72"
     inkscape:window-y="27"
     inkscape:window-maximized="1"
     inkscape:current-layer="layer1" />
  <defs
     id="defs38" />
  <g
     inkscape:label="Layer 1"
     inkscape:groupmode="layer"
     id="layer1">
    <g
       id="g64"
       transform="matrix(0.19418381,0,0,0.19418381,9.156169,10.259071)">
      <path
         fill-rule="evenodd"
         clip-rule="evenodd"
         d="m 16.358721,20.990035 c -0.381794,-0.525727 -0.597694,-1.153319 -0.620712,-1.802342 -0.02276,-0.649287 0.148695,-1.290637 0.492389,-1.841764 0.343958,-0.551128 0.844286,-0.987161 1.437481,-1.252273 0.593196,-0.264848 1.251744,-0.346869 1.891771,-0.235215 l 66.04582,11.66151 c 0.665163,0.118004 1.277409,0.439738 1.752071,0.920486 0.474663,0.481012 0.788458,1.097491 0.897731,1.764241 0.109273,0.66675 0.009,1.350963 -0.287073,1.958446 -0.296333,0.607219 -0.773906,1.107546 -1.366573,1.431925 L 64.429014,45.705822 c -0.493712,0.269346 -0.909373,0.661987 -1.206764,1.139296 -0.297392,0.477308 -0.466196,1.023673 -0.490273,1.585383 l -1.082146,25.050485 c -0.03096,0.675217 -0.270669,1.323975 -0.686065,1.857111 -0.415395,0.533135 -0.986102,0.923925 -1.633273,1.118658 -0.64717,0.194733 -1.338791,0.183885 -1.979347,-0.03122 -0.640557,-0.215371 -1.198828,-0.624152 -1.597025,-1.169987 L 16.352106,20.991622 Z"
         fill="#f90202"
         id="path2"
         style="stroke-width:0.264583" />
      <path
         fill-rule="evenodd"
         clip-rule="evenodd"
         d="m 47.790427,67.651951 c -5.69595,3.65125 -12.104952,6.403181 -19.075135,8.012377 C -3.8895766,83.191724 -36.42351,62.862199 -43.950985,30.25733 -51.47846,-2.3478025 -31.149068,-34.881762 1.456065,-42.409158 34.060933,-49.936554 66.594893,-29.607294 74.122289,2.9978391 75.673806,9.7182557 76.041841,16.435762 75.36292,22.931547 L 67.028545,21.510999 C 67.524639,16.131756 67.18412,10.582649 65.902479,5.0314266 59.443206,-22.946408 31.526754,-40.390652 3.5489191,-33.931379 -24.428651,-27.472371 -41.872921,0.44434542 -35.413754,28.421916 c 6.45914,27.977835 34.3758565,45.422078 62.353427,38.962806 5.767652,-1.331384 11.087629,-3.57505 15.842985,-6.542882 z"
         fill="#656565"
         id="path4"
         style="stroke-width:0.264583" />
    </g>
  </g>
</svg>
